HIERARCHY
ROOT Hips
{
	OFFSET 0.000000 0.000000 0.000000
	CHANNELS 6 Xposition Yposition Zposition Xrotation Yrotation Zrotation
	JOINT Spine
	{
		OFFSET 0.000000 0.000000 0.102259
		CHANNELS 3 Xrotation Yrotation Zrotation
		JOINT Spine1
		{
			OFFSET 0.000000 -0.017757 0.100705
			CHANNELS 3 Xrotation Yrotation Zrotation
			JOINT Spine2
			{
				OFFSET 0.000000 -0.008912 0.101870
				CHANNELS 3 Xrotation Yrotation Zrotation
				JOINT Spine3
				{
					OFFSET 0.000000 0.000000 0.102259
					CHANNELS 3 Xrotation Yrotation Zrotation
					JOINT Neck
					{
						OFFSET 0.000000 0.013148 0.131476
						CHANNELS 3 Xrotation Yrotation Zrotation
						JOINT Neck1
						{
							OFFSET 0.000000 0.003817 0.043628
							CHANNELS 3 Xrotation Yrotation Zrotation
							JOINT Head
							{
								OFFSET 0.000000 0.007605 0.043130
								CHANNELS 3 Xrotation Yrotation Zrotation
								End Site
								{
									OFFSET 0.000000 0.000000 0.097916
								}
							}
						}
					}
					JOINT RightShoulder
					{
						OFFSET 0.000000 0.000000 0.092033
						CHANNELS 3 Xrotation Yrotation Zrotation
						JOINT RightArm
						{
							OFFSET 0.166682 0.000000 0.000000
							CHANNELS 3 Xrotation Yrotation Zrotation
							JOINT RightForeArm
							{
								OFFSET 0.339269 0.000000 0.000000
								CHANNELS 3 Xrotation Yrotation Zrotation
								JOINT RightHand
								{
									OFFSET 0.272813 0.000000 0.000000
									CHANNELS 3 Xrotation Yrotation Zrotation
									End Site
									{
										OFFSET 0.042337 0.031482 -0.014412
									}
									End Site
									{
										OFFSET 0.112899 -0.001086 0.000000
									}
								}
							}
						}
					}
					JOINT LeftShoulder
					{
						OFFSET 0.000000 0.000000 0.092033
						CHANNELS 3 Xrotation Yrotation Zrotation
						JOINT LeftArm
						{
							OFFSET -0.166682 0.000000 0.000000
							CHANNELS 3 Xrotation Yrotation Zrotation
							JOINT LeftForeArm
							{
								OFFSET -0.339269 0.000000 0.000000
								CHANNELS 3 Xrotation Yrotation Zrotation
								JOINT LeftHand
								{
									OFFSET -0.272813 0.000000 0.000000
									CHANNELS 3 Xrotation Yrotation Zrotation
									End Site
									{
										OFFSET -0.042337 0.031482 -0.014412
									}
									End Site
									{
										OFFSET -0.112899 -0.001086 0.000000
									}
								}
							}
						}
					}
				}
			}
		}
	}
	JOINT RightUpLeg
	{
		OFFSET 0.120852 0.000000 0.000000
		CHANNELS 3 Xrotation Yrotation Zrotation
		JOINT RightLeg
		{
			OFFSET 0.000000 0.000000 -0.533302
			CHANNELS 3 Xrotation Yrotation Zrotation
			JOINT RightFoot
			{
				OFFSET 0.000000 0.000000 -0.471812
				CHANNELS 3 Xrotation Yrotation Zrotation
				JOINT RightToeBase
				{
					OFFSET 0.000000 0.169608 -0.043308
					CHANNELS 3 Xrotation Yrotation Zrotation
					End Site
					{
						OFFSET 0.000000 0.063837 0.000000
					}
				}
			}
		}
	}
	JOINT LeftUpLeg
	{
		OFFSET -0.120852 0.000000 0.000000
		CHANNELS 3 Xrotation Yrotation Zrotation
		JOINT LeftLeg
		{
			OFFSET 0.000000 0.000000 -0.533302
			CHANNELS 3 Xrotation Yrotation Zrotation
			JOINT LeftFoot
			{
				OFFSET 0.000000 0.000000 -0.471812
				CHANNELS 3 Xrotation Yrotation Zrotation
				JOINT LeftToeBase
				{
					OFFSET 0.000000 0.169608 -0.043308
					CHANNELS 3 Xrotation Yrotation Zrotation
					End Site
					{
						OFFSET 0.000000 0.064424 0.000000
					}
				}
			}
		}
	}
}
MOTION
Frames: 5
Frame Time: 0.008333
1.875495 1.100160 -3.206400 -127.382617 28.011431 -20.731443 -8.234642 11.205622 5.115983 -8.150422 11.608089 4.109798 -5.566980 -4.027397 2.022697 -5.566980 -4.027397 2.022697 9.674370 12.841891 -17.699686 8.390214 3.685619 -16.598219 7.579819 -4.328704 -14.942714 -0.379669 -17.732897 -1.246364 71.799598 31.445071 -2.747079 14.876921 10.113466 33.465406 -0.000036 10.948640 -4.860886 -0.660687 -4.460133 -8.435039 -46.187674 -51.527898 -57.430560 -0.078957 0.108391 -53.928525 0.000017 -18.231642 -18.358519 55.246959 -5.732020 12.753032 -8.199700 0.000000 0.000000 -2.900460 12.134647 -10.202724 7.686900 0.000000 0.000000 36.616894 1.666266 10.959091 -0.740400 0.000000 0.000000 -5.783865 -13.851296 11.965369 9.164900 0.000000 0.000000 
1.875533 1.100150 -3.206552 -127.386255 27.999089 -20.738205 -8.251398 11.222011 5.124737 -8.166792 11.625045 4.117094 -5.566092 -4.033387 2.025218 -5.566092 -4.033387 2.025218 9.688894 12.847687 -17.703090 8.398992 3.686938 -16.599447 7.581634 -4.333537 -14.942711 -0.378521 -17.735744 -1.242432 71.861341 31.396058 -2.786073 14.884772 10.128248 33.488954 0.000043 10.877660 -4.880905 -0.663086 -4.476794 -8.434122 -46.165093 -51.510469 -57.424452 -0.097072 0.133301 -53.937087 -0.000027 -18.238945 -18.367151 55.277035 -5.708272 12.815422 -8.293900 0.000000 0.000000 -2.846933 12.167253 -10.258859 7.701900 0.000000 0.000000 36.611314 1.682908 10.967589 -0.742800 0.000000 0.000000 -5.807815 -13.912979 11.923831 9.329400 0.000000 0.000000 
1.875576 1.100071 -3.206763 -127.385142 28.036047 -20.761928 -8.264095 11.207528 5.121013 -8.179855 11.610315 4.114630 -5.553509 -4.047583 2.023549 -5.553509 -4.047583 2.023549 9.704842 12.859071 -17.699086 8.400391 3.694154 -16.593071 7.563051 -4.334656 -14.935111 -0.375471 -17.732562 -1.232682 72.017993 31.411435 -2.882057 14.785846 10.065406 33.510484 0.000001 10.887640 -4.898892 -0.662029 -4.504109 -8.370048 -46.147733 -51.459812 -57.398234 -0.113233 0.155551 -53.947246 0.000013 -18.258639 -18.384341 55.336045 -5.699979 12.889017 -8.396400 0.000000 0.000000 -2.766297 12.158233 -10.297203 7.686700 0.000000 0.000000 36.603566 1.666522 11.018019 -0.739400 0.000000 0.000000 -5.813256 -13.919489 11.905190 9.412300 0.000000 0.000000 
1.875589 1.100033 -3.206925 -127.386222 28.028302 -20.750088 -8.269779 11.223122 5.118027 -8.185150 11.625640 4.110262 -5.559703 -4.055298 2.015548 -5.559703 -4.055298 2.015548 9.742805 12.859172 -17.704543 8.403908 3.688707 -16.592165 7.520466 -4.349432 -14.935811 -0.367052 -17.720382 -1.205742 72.089027 31.353433 -2.901478 14.759207 10.038180 33.489522 -0.000047 10.888196 -4.901549 -0.661293 -4.514956 -8.341311 -46.126807 -51.448993 -57.401845 -0.123118 0.169135 -53.948018 0.000000 -18.290235 -18.406234 55.356409 -5.700945 12.889441 -8.466200 0.000000 0.000000 -2.711884 12.150707 -10.314004 7.683400 0.000000 0.000000 36.601724 1.664550 11.002301 -0.753900 0.000000 0.000000 -5.816908 -13.924609 11.900815 9.491700 0.000000 0.000000 
1.875617 1.099993 -3.207068 -127.382642 28.016630 -20.740241 -8.275403 11.230382 5.124580 -8.190674 11.633339 4.116094 -5.566579 -4.041295 2.020025 -5.566579 -4.041295 2.020025 9.781501 12.840270 -17.720338 8.408248 3.670401 -16.601937 7.479371 -4.365384 -14.949978 -0.364865 -17.728368 -1.198224 72.186387 31.283034 -2.956079 14.748840 10.027875 33.482091 0.000044 10.882891 -4.921729 -0.667134 -4.541526 -8.365591 -46.101282 -51.450409 -57.395752 -0.123046 0.169064 -53.952518 -0.000070 -18.307689 -18.412073 55.375485 -5.695272 12.950429 -8.548300 0.000000 0.000000 -2.642132 12.163510 -10.387497 7.674200 0.000000 0.000000 36.598202 1.667257 10.992211 -0.775800 0.000000 0.000000 -5.812481 -13.937133 11.893526 9.550000 0.000000 0.000000 
